<svg xmlns="http://www.w3.org/2000/svg" xmlns:xlink="http://www.w3.org/1999/xlink" width="1252.485" height="885.819" viewBox="0 0 1252.485 885.819">
  <defs>
    <clipPath id="clip-path">
      <rect id="Rectangle_38" data-name="Rectangle 38" width="775" height="753" transform="translate(2687 587)" fill="#fff" stroke="#707070" stroke-width="1"/>
    </clipPath>
  </defs>
  <g id="Group_76" data-name="Group 76" transform="translate(-668.015 -184.181)">
    <g id="Group_1" data-name="Group 1" transform="translate(-527.57 -29.357)">
      <g id="Group_24" data-name="Group 24" transform="translate(1195.585 273.267)">
        <g id="Group_23" data-name="Group 23">
          <path id="Path_45" data-name="Path 45" d="M1275.977,1143.8S1127.715,947.5,1250.9,734.985c109.3-188.562,236.735-175.672,330.23-99.153,39.821,32.59,154.63,4.017,252.346-187.852,133.259-261.656,595.183-102.96,510.96,299.6-40.758,194.813,124.043,201.894,40.071,396.628Z" transform="translate(-1198.387 -319.903)" fill="#0084c0"/>
          <path id="Rectangle_21" data-name="Rectangle 21" d="M1.714,0H1250.77a1.714,1.714,0,0,1,1.714,1.714v0a1.714,1.714,0,0,1-1.714,1.714H1.713A1.713,1.713,0,0,1,0,1.715v0A1.714,1.714,0,0,1,1.714,0Z" transform="translate(0 822.595)" fill="#0084c0"/>
        </g>
      </g>
      <ellipse id="Ellipse_1" data-name="Ellipse 1" cx="152.061" cy="109.484" rx="152.061" ry="109.484" transform="matrix(0.747, -0.665, 0.665, 0.747, 1426.689, 415.678)" fill="#ffa82b"/>
      <path id="Path_47" data-name="Path 47" d="M33.822,0C52.5,0,67.644,21.031,67.644,46.975S52.5,93.95,33.822,93.95,0,72.918,0,46.975,15.143,0,33.822,0Z" transform="translate(1337.208 442.015) rotate(-41.657)" fill="#e6436c"/>
      <path id="Path_46" data-name="Path 46" d="M3215.08,510.392c-5.714-25.307,4.424-49.156,22.645-53.27s37.623,13.065,43.337,38.372-4.425,49.156-22.646,53.27S3220.794,535.7,3215.08,510.392Z" transform="translate(-884.698 -109.882)" fill="#6db230"/>
    </g>
    <g id="Mask_Group_1" data-name="Mask Group 1" transform="translate(-1689 -270)" clip-path="url(#clip-path)">
      <g id="Group_49" data-name="Group 49" transform="translate(1937.595 713.732)">
        <g id="Group_45" data-name="Group 45" transform="translate(983.733 27.766)">
          <path id="Path_48" data-name="Path 48" d="M1123.452,184.89a8.523,8.523,0,0,0-11.881.846,8.181,8.181,0,0,0,.855,11.681c31.1,26.456,45.03,47.14,46.8,62.48a21.612,21.612,0,0,1-7.415,19.486c-6.11,5.467-15.392,9.433-26.82,11.908-3.109-7.9-8.069-16.2-15.125-24.879-12.888-15.844-30.28-29.927-48.206-41.474-22.757-14.654-46.7-25.417-63.411-30.521-40.2-12.275-66.46-13.894-81.1-8.947-9.163,3.1-14.606,8.636-16.709,15.908-1.911,6.631-.656,14.231,3.394,22.26,8.911,17.664,32.827,39.4,66.2,56.789,45.134,23.508,100.736,33.6,142.1,29.556.343,8.747-3.057,16.435-9.219,22.973-7.509,7.965-19.061,14.4-33.125,19.149-1.045.354-2.107.7-3.174,1.03-2.943-2.392-6.125-4.743-9.578-7.052a244.455,244.455,0,0,0-34.056-18.694,360.169,360.169,0,0,0-40.848-15.576c-41.207-12.983-68.437-13.16-82.569-7.078-8.183,3.519-12.875,9.07-14.224,15.822-1.272,6.363.7,13.278,5.747,20.008,10.113,13.475,34.66,27.688,71.419,33.892C996.55,380.2,1032.7,379,1062.3,371.6a52.119,52.119,0,0,1,11.493,16.047c2.526,5.907,2.958,11.564,1.41,16.629-1.559,5.113-5.253,9.859-10.962,13.879-5.763,4.072-13.447,7.343-22.969,9.535a71.233,71.233,0,0,0-3.528-7.775c-8.349-15.829-21.5-26.49-36.308-33.08a99.619,99.619,0,0,0-24.323-7.151c-31.288-5.13-53.369-1.09-64.566,6.831-5.633,3.979-8.973,9.012-9.908,14.639-.943,5.65.6,11.476,4.726,17.022,8.114,10.914,27.991,21.548,60.49,26.574a235.408,235.408,0,0,0,25.9,2.511c8.608.365,17.791.335,27.518-.2,2.628-.149,5.2-.35,7.691-.607,1.511,9.241,1.445,19.972-.659,32.361-2.517,14.872-7.952,32.061-17.046,51.821a8.236,8.236,0,0,0,4.223,10.966,8.484,8.484,0,0,0,11.154-4.154c9.718-21.1,15.557-39.656,18.307-55.9,2.425-14.293,2.468-26.853.65-37.836,11.594-2.725,21.131-6.872,28.487-12.056,8.816-6.214,14.641-13.956,17.294-22.636,2.675-8.729,2.034-18.191-2.077-27.8a62.371,62.371,0,0,0-9.388-15.062c14.546-5.467,26.762-12.806,35.355-21.908,9.673-10.26,14.761-22.591,13.576-36.852,14.2-3.111,26.063-8.343,34.326-15.753,9.6-8.591,14.431-19.765,12.831-33.568-2.233-19.283-17.91-43.724-52.546-73.189Zm-15.679,108.886c-37.951,3.126-88.45-6.441-129.879-28.023-30.208-15.738-51.447-34.6-58.944-49.45-2.181-4.325-3-7.911-2.265-10.45.544-1.889,2.466-3.5,5.942-4.679,11.579-3.908,34.222-2.049,70.67,9.079,15.39,4.7,37.666,14.76,59.123,28.574,16.71,10.759,32.734,23.675,44.312,37.908a83.72,83.72,0,0,1,11.042,17.042Zm-62.517,64.462c-24.644,4.322-52.93,4.413-79.911-.143-32.11-5.417-52.779-16.813-60.723-27.395-2.127-2.828-3.055-5.24-2.708-6.959.267-1.343,1.7-2.66,4.387-3.817,10.9-4.69,33.857-3.938,70.683,7.665a341.142,341.142,0,0,1,38.929,14.861,234.1,234.1,0,0,1,29.342,15.787Zm-21.14,72.021c-1.235.095-2.49.181-3.772.248-9.224.507-17.849.542-25.866.2a218.924,218.924,0,0,1-24.04-2.315c-27.606-4.273-43.649-12.184-49.478-20.021-1.334-1.794-1.887-3.349-1.688-4.56.207-1.231,1.254-2.554,3.107-3.865,8-5.65,25.5-8.248,51.957-3.912a82.306,82.306,0,0,1,20.162,5.92c11.612,5.169,21.859,13.421,28.26,25.553C1023.234,428.4,1023.684,429.319,1024.116,430.26Z" transform="translate(-884.16 202.793)" fill="#5d3222" fill-rule="evenodd"/>
          <path id="Path_49" data-name="Path 49" d="M1101.057,186.324a8.19,8.19,0,0,0,1.332,11.094c31.1,26.46,45.031,47.14,46.8,62.48a22.371,22.371,0,0,1-1.3,10.966l18.137-3.3a42.05,42.05,0,0,0-.063-9.481c-2.1-18.137-16.094-40.837-46.578-67.99l-18.326-3.765Zm-44.476,166.811c-2.943-2.392-6.125-4.743-9.578-7.047a244.465,244.465,0,0,0-34.056-18.7A360.182,360.182,0,0,0,972.1,311.813q-10.36-3.258-19.54-5.473c-45.253-1.282-58.935,15.049-58.935,15.049a12.985,12.985,0,0,1,2.641-1.464c10.9-4.69,33.857-3.938,70.683,7.665a341.166,341.166,0,0,1,38.929,14.861,234.11,234.11,0,0,1,29.342,15.787l21.362-5.1Zm-4.318,18.465a52.129,52.129,0,0,1,11.493,16.047,29.861,29.861,0,0,1,1.809,5.72l17.372,4.3a43.24,43.24,0,0,0-3.677-16.446,62.36,62.36,0,0,0-9.388-15.062l-17.609,5.439Zm-21.028,56.089a71.241,71.241,0,0,0-3.528-7.775,72.253,72.253,0,0,0-28.546-29.144c-16.172-1.857-33.14.643-46.386,3.748q5.438.528,11.523,1.518a82.305,82.305,0,0,1,20.162,5.92c11.612,5.169,21.859,13.421,28.261,25.553.469.877.911,1.768,1.334,2.688l17.18-2.509Zm-12.205,19.4c1.408,9.1,1.3,19.62-.762,31.73a179.8,179.8,0,0,1-8.842,32.076,100.116,100.116,0,0,0,16.457,4.02,194.478,194.478,0,0,0,9.023-33.367c2.373-14,2.468-26.337.762-37.165l-16.638,2.705Zm83.07-137.1c.343,8.744-3.057,16.435-9.219,22.971q-.557.586-1.142,1.17l18.162,4.508a45.288,45.288,0,0,0,8.9-31.234l-16.705,2.584Zm12.857-18.694-17.221,2.485a83.722,83.722,0,0,0-11.041-17.042c-11.577-14.233-27.6-27.149-44.312-37.908-21.457-13.814-43.733-23.875-59.123-28.574-22.558-6.89-39.838-10.226-52.471-10.839-5.279-5.929-10.115-11.471-14.054-16.025,15.507-1.868,38.92,1.084,71.48,11.027,16.711,5.1,40.654,15.867,63.411,30.521,17.927,11.547,35.319,25.631,48.206,41.474C1106.889,275.093,1111.849,283.4,1114.958,291.291Z" transform="translate(-874.125 202.794)" fill="#2e1911" fill-rule="evenodd"/>
          <path id="Path_50" data-name="Path 50" d="M1179.015,162.854l4.752-22.4c8.159-38.49-17.184-76.553-56.323-84.577l-11.551-2.371c-39.145-8.023-77.84,16.906-86.006,55.4l-19.281,90.933,76.178,15.617,18.769-88.517c3.01-14.188,17.27-23.377,31.706-20.417h0a26.432,26.432,0,0,1,20.754,31.171l-4.239,19.987Z" transform="translate(-738.531 51.114)" fill="#7393ca" fill-rule="evenodd"/>
          <path id="Path_51" data-name="Path 51" d="M1168.5,162.847l4.752-22.4c.3-1.442.553-2.882.769-4.32l-26.669,2.278-4.092,19.266,25.24,5.175Zm-29.057-98.294,7.937,61.893h0a26.68,26.68,0,0,0-20.635-19.937h0c-14.436-2.958-28.7,6.233-31.707,20.421l-13.318,62.826-6.451,1.077s-50.059-48.688-50.467-55.763c-.2-3.623-2.722-16.137-5.128-27.49A71.732,71.732,0,0,1,1058.7,59.311l10.157,19.376s4.148,6.339,10.21-1.272c4.673-5.868,10.185-19.475,12.469-25.406a73.505,73.505,0,0,1,13.844,1.49l11.545,2.371A72.661,72.661,0,0,1,1139.444,64.553Z" transform="translate(-728.018 51.121)" fill="#5478b8" fill-rule="evenodd"/>
          <path id="Path_52" data-name="Path 52" d="M1090.42,143.027a25.544,25.544,0,0,0,30.225-19.467,25.138,25.138,0,0,0-19.8-29.72,25.54,25.54,0,0,0-30.223,19.467A25.125,25.125,0,0,0,1090.42,143.027Z" transform="translate(-669.595 98.988)" fill="#ebb831" fill-rule="evenodd"/>
          <path id="Path_53" data-name="Path 53" d="M1080.6,133.368c.607.127,1.22.229,1.833.309L1086.2,115.9a7.218,7.218,0,0,0,6.712-5.67,7.134,7.134,0,0,0-5.622-8.444,7.262,7.262,0,0,0-8.587,5.529,7.123,7.123,0,0,0,3.859,7.84l-3.77,17.772C1079.386,133.1,1079.986,133.245,1080.6,133.368Z" transform="translate(-659.774 108.646)" fill="#2e1911" fill-rule="evenodd"/>
          <path id="Path_54" data-name="Path 54" d="M1157.278,129.706l4.75-22.4c8.162-38.493-17.182-76.556-56.32-84.581l-11.549-2.366c-39.138-8.028-77.842,16.9-86,55.4L988.876,166.69l76.18,15.619,18.769-88.519c3-14.188,17.27-23.377,31.7-20.417h0a26.434,26.434,0,0,1,20.764,31.171l-4.238,19.987Z" transform="translate(-763.718 12.694)" fill="#89288a" fill-rule="evenodd"/>
          <path id="Path_55" data-name="Path 55" d="M1154.461,99.926l4.75-22.4q.6-2.811.961-5.616l-27.2-9.776a25.621,25.621,0,0,1,.492,12.629l-4.238,19.987,25.231,5.178ZM1000.616,68.254l-9.31,43.9,78.9,2.772,10.8-50.92a26.548,26.548,0,0,1,17.34-19.456Z" transform="translate(-760.902 42.476)" fill="#642666" fill-rule="evenodd"/>
          <path id="Path_56" data-name="Path 56" d="M1068.684,109.882a25.543,25.543,0,0,0,30.228-19.464,25.134,25.134,0,0,0-19.791-29.724,25.546,25.546,0,0,0-30.232,19.467A25.136,25.136,0,0,0,1068.684,109.882Z" transform="translate(-694.786 60.567)" fill="#ebb831" fill-rule="evenodd"/>
          <path id="Path_57" data-name="Path 57" d="M1058.862,100.223c.618.125,1.233.225,1.837.307l3.764-17.776a7.232,7.232,0,0,0,6.723-5.668,7.149,7.149,0,0,0-5.624-8.442,7.255,7.255,0,0,0-8.585,5.527,7.1,7.1,0,0,0,3.85,7.84l-3.764,17.772C1057.65,99.949,1058.257,100.1,1058.862,100.223Z" transform="translate(-684.963 70.226)" fill="#2e1911" fill-rule="evenodd"/>
          <path id="Path_58" data-name="Path 58" d="M890.943,105.389l4.755-22.4c8.159-38.493,46.861-63.422,86.006-55.4l11.545,2.369c39.144,8.023,64.488,46.084,56.331,84.579l-19.292,90.933L954.11,189.851l18.769-88.519a26.431,26.431,0,0,0-20.76-31.175h0c-14.429-2.958-28.692,6.233-31.7,20.419l-4.232,19.987Z" transform="translate(-877.233 21.077)" fill="#fff" fill-rule="evenodd"/>
          <path id="Path_59" data-name="Path 59" d="M890.943,90.541l4.4-20.758,28.781-2.932a25.953,25.953,0,0,0-3.712,8.876l-4.232,19.987-25.242-5.173ZM1033.786,38.9a70.662,70.662,0,0,1,15.794,60.792l-1.922,9.034c-1.544,3.718-2.8,6.339-3.489,7.011-2.759,2.684-59.41,18.359-82.469,23.5l11.18-52.749A26.29,26.29,0,0,0,959.9,58.208l18.655-6.43L1019,64.8s9.165,2.33,11.536-6.672A172.1,172.1,0,0,0,1033.786,38.9Z" transform="translate(-877.233 35.925)" fill="#bddfe9" fill-rule="evenodd"/>
          <path id="Path_60" data-name="Path 60" d="M904.934,104.994a25.125,25.125,0,0,1-19.8-29.72A25.545,25.545,0,0,1,915.36,55.807a25.133,25.133,0,0,1,19.8,29.722A25.541,25.541,0,0,1,904.934,104.994Z" transform="translate(-884.594 54.905)" fill="#ebb831" fill-rule="evenodd"/>
          <path id="Path_61" data-name="Path 61" d="M895.114,95.336c-.615-.123-1.22-.272-1.807-.436l3.772-17.774a7.113,7.113,0,0,1-3.861-7.838,7.26,7.26,0,0,1,8.591-5.529,7.132,7.132,0,0,1,5.618,8.44,7.212,7.212,0,0,1-6.715,5.672l-3.774,17.774C896.334,95.562,895.718,95.465,895.114,95.336Z" transform="translate(-874.773 64.564)" fill="#2e1911" fill-rule="evenodd"/>
          <path id="Path_62" data-name="Path 62" d="M924.335,83.542l4.748-22.4c8.164-38.495,46.866-63.424,86.01-55.4l11.545,2.369c39.145,8.025,64.488,46.086,56.329,84.579l-19.288,90.933L987.5,168.008l18.765-88.521a26.436,26.436,0,0,0-20.755-31.175h0c-14.434-2.958-28.693,6.236-31.7,20.421l-4.241,19.985Z" transform="translate(-838.528 -4.244)" fill="#cf4c2a" fill-rule="evenodd"/>
          <path id="Path_63" data-name="Path 63" d="M924.335,56.055l4.709-22.183,29.062-2.36a25.956,25.956,0,0,0-4.29,9.733L949.575,61.23l-25.24-5.175Zm159.4,4.821c-.216,1.442-.469,2.887-.771,4.333L1070.2,125.381c-25.75.19-59.03.445-79.624.63L1006.267,52a26.106,26.106,0,0,0-7.345-24.042h0L1033.949,62.8s7.762,9.507,23.8,6.134A175.656,175.656,0,0,0,1083.738,60.876Z" transform="translate(-838.528 23.243)" fill="#ba342b" fill-rule="evenodd"/>
          <path id="Path_64" data-name="Path 64" d="M938.325,83.151a25.126,25.126,0,0,1-19.8-29.722,25.542,25.542,0,0,1,30.221-19.464,25.131,25.131,0,0,1,19.8,29.722A25.542,25.542,0,0,1,938.325,83.151Z" transform="translate(-845.89 29.585)" fill="#ebb831" fill-rule="evenodd"/>
          <path id="Path_65" data-name="Path 65" d="M928.5,73.492c-.615-.125-1.209-.272-1.809-.436l3.774-17.774a7.119,7.119,0,0,1-3.861-7.84,7.26,7.26,0,0,1,8.594-5.527,7.129,7.129,0,0,1,5.614,8.44,7.208,7.208,0,0,1-6.715,5.67L930.331,73.8C929.727,73.721,929.109,73.617,928.5,73.492Z" transform="translate(-836.069 39.244)" fill="#2e1911" fill-rule="evenodd"/>
          <path id="Path_66" data-name="Path 66" d="M976.033,71.793a157.748,157.748,0,0,0-67.943,99.168c-18.151,85.607,37.7,169.471,124.756,187.32S1205.182,321.2,1223.338,235.6a155.223,155.223,0,0,0-7.639-89.931c-31.724-13.84-84.627-36.193-138.57-55.789C1048.04,79.307,1011.534,74.084,976.033,71.793Z" transform="translate(-861.325 74.053)" fill="#ebb831" fill-rule="evenodd"/>
          <path id="Path_67" data-name="Path 67" d="M959.434,71.793a160.006,160.006,0,0,0-40.453,38.195c26.756,2.492,127.385,12.866,193.487,33.527,76.782,24,102.638,172.893-34.233,215.52,62.431-11.307,114.752-58.553,128.512-123.436a155.221,155.221,0,0,0-7.639-89.931c-31.724-13.84-84.627-36.193-138.57-55.789-29.09-10.571-65.6-15.794-101.1-18.085Zm97.692,121.767,6.117-4.7,10.867,37.845,5.081,16.673s-5.1,8.231-13.6,10.29-27.024-.577-27.024-.577Z" transform="translate(-844.734 74.053)" fill="#de8c2f" fill-rule="evenodd"/>
          <path id="Path_68" data-name="Path 68" d="M992.316,194.963s-14.926-3.8-20.646-15.647c0,0-11.7-3.133-12.652-9.222s2.669-17.858,17.794-13.281l18.212-29.4c6.153-9.163,20.345-6.255,22.256,4.562l4.755,34.107c15.718,1.753,14.256,13.965,10.91,19.166s-15.343,3.483-15.343,3.483C1007.536,197.342,992.316,194.963,992.316,194.963Z" transform="translate(-798.489 132.182)" fill="#f7e593" fill-rule="evenodd"/>
          <path id="Path_69" data-name="Path 69" d="M951.543,159.9c-5.46,25.752,11.342,50.987,37.534,56.355s51.849-11.156,57.307-36.908a4.663,4.663,0,0,0-3.668-5.51L957.15,156.29A4.752,4.752,0,0,0,951.543,159.9Z" transform="translate(-808.185 171.88)" fill="#2e1911" fill-rule="evenodd"/>
          <path id="Path_70" data-name="Path 70" d="M953.726,178.523a48.305,48.305,0,0,0,31.627,22.092,48.979,48.979,0,0,0,37.981-7.825A48.324,48.324,0,0,0,991.7,170.7,48.953,48.953,0,0,0,953.726,178.523Z" transform="translate(-804.461 187.52)" fill="#cf4c2a" fill-rule="evenodd"/>
          <g id="Group_43" data-name="Group 43" transform="translate(84.167 265.536)">
            <path id="Path_71" data-name="Path 71" d="M1036.072,144.178a27.057,27.057,0,0,0-32.015,20.615,26.629,26.629,0,0,0,20.967,31.48,27.064,27.064,0,0,0,32.015-20.617A26.621,26.621,0,0,0,1036.072,144.178Z" transform="translate(-830.954 -108.238)" fill="#cf4c2a" fill-rule="evenodd"/>
            <path id="Path_72" data-name="Path 72" d="M956.16,127.794a27.048,27.048,0,0,0-32.007,20.613,26.614,26.614,0,0,0,20.965,31.482,27.049,27.049,0,0,0,32-20.62A26.611,26.611,0,0,0,956.16,127.794Z" transform="translate(-923.576 -127.228)" fill="#cf4c2a" fill-rule="evenodd"/>
          </g>
          <g id="Group_44" data-name="Group 44" transform="translate(120.269 215.537)">
            <path id="Path_73" data-name="Path 73" d="M967.157,118.788a1,1,0,0,0,.138.032c.164.035.335.058.51.1.045.015.1.026.138.039a16.13,16.13,0,0,1,8.792,5.154,21.733,21.733,0,0,1,2.092,2.91c1.57,2.753,3.126,9.189,7.123,9.047a1.537,1.537,0,0,0,.2-.019c6.1-.9,3.744-11.532,2.526-15.459a25.34,25.34,0,0,0-3.168-5.875,25.873,25.873,0,0,0-14.252-9.869,1.61,1.61,0,0,0-.285-.06c-.268-.063-.525-.151-.784-.209-.082-.015-.162-.028-.237-.037a2.283,2.283,0,0,0-.234-.056c-5.65-1.026-10.834-.063-16.146,2.211a27.541,27.541,0,0,0-6.644,4.366c-3.029,2.71-9.47,10.545-5.229,14.41,3.4,2.787,8.222-2.163,10.956-3.878a26.891,26.891,0,0,1,4.033-2.06,1.994,1.994,0,0,0,.345-.076,17.757,17.757,0,0,1,9.949-.7C967.043,118.771,967.106,118.779,967.157,118.788Z" transform="translate(-940.296 -104.071)" fill="#2e1911" fill-rule="evenodd"/>
            <path id="Path_74" data-name="Path 74" d="M1026.6,130.985l-.138-.024c-.164-.035-.337-.08-.51-.114-.043,0-.095-.011-.14-.019a16.292,16.292,0,0,0-10.148,1.274,21.52,21.52,0,0,0-3.1,1.844c-2.554,1.906-6.6,7.194-10.206,5.493a1.3,1.3,0,0,1-.179-.1c-5.216-3.217,1.254-12.044,3.971-15.161a25.734,25.734,0,0,1,5.3-4.141,26.217,26.217,0,0,1,17.065-3.448,2.181,2.181,0,0,1,.292.058c.27.045.538.067.805.119a1.7,1.7,0,0,1,.225.056,2.186,2.186,0,0,1,.233.039,27.169,27.169,0,0,1,18.234,14.989c1.669,3.67,4.385,13.382-1.075,15.261-4.245,1.218-6.652-5.216-8.461-7.857a26.435,26.435,0,0,0-2.854-3.476,1.55,1.55,0,0,1-.285-.2,17.619,17.619,0,0,0-8.844-4.549A1.62,1.62,0,0,1,1026.6,130.985Z" transform="translate(-870.864 -89.844)" fill="#2e1911" fill-rule="evenodd"/>
          </g>
          <path id="Path_75" data-name="Path 75" d="M920.93,123.7c52.2-2.3,143.87,16.83,143.87,16.83s91.79,18.488,138.712,41.107c3.15-4.294,6.542-18.132,6.931-23.262.089-1.231,0-2.118-.373-2.373-18.126-12.376-.715-54.779-52.259-56.4-17.213-.544-22.966-5.262-29.826-19.058s-15.049-13.924-26.268-11.912-16,2.742-18.475,2.235-3.524-.723-3.524-.723-1.036-.212-3.513-.721-6.557-3.049-16.025-9.308-17.027-9.353-28.926.6-19.089,12.013-35.088,5.75-33.1-8.779-47.952,10.3-20.784,20.455-22.88,20.861c-.44.086-.883.866-1.3,2.03C922.308,104.51,919.788,118.525,920.93,123.7Z" transform="translate(-842.808 53.779)" fill="#fff" fill-rule="evenodd"/>
          <path id="Path_76" data-name="Path 76" d="M920.929,92.762c52.2-2.291,143.87,16.832,143.87,16.832s91.791,18.491,138.723,41.112c3.139-4.3,6.532-18.134,6.92-23.264.089-1.231,0-2.118-.373-2.371-12.085-8.256-8.384-29.858-19.845-43.817-5.678,17.683-37.21,38.119-99.127,23.968-68.748-15.714-158.336-20.514-165.418-21.185-2.882-.274-4.005-1.587-4.325-3.044C920.687,85.629,920.376,90.243,920.929,92.762Z" transform="translate(-842.807 84.717)" fill="#f7e593" fill-rule="evenodd"/>
          <path id="Path_77" data-name="Path 77" d="M976.009,160.893c-.263-.462-.512-.915-.754-1.393a21.671,21.671,0,0,1-1.861-5.7c-.026-.071-.049-.261-.071-.354a.1.1,0,0,0-.024-.069.228.228,0,0,0,0-.078,24.78,24.78,0,0,1-.527-5.776,18.481,18.481,0,0,1,.154-2.241c.138-1.524.695-3.563-.795-4.4-1.913-.993-3.219,2.148-3.653,3.429a16.5,16.5,0,0,0-.633,2.766,24.008,24.008,0,0,0,.123,7.186.291.291,0,0,0,.028.091.426.426,0,0,0,.006.091c.017.125.086.335.1.438a21.7,21.7,0,0,0,2.951,7.013,12.124,12.124,0,0,0,1.315,1.691c.935.985,3.694,3.375,4.88,1.464C978.067,163.643,976.786,162.233,976.009,160.893Z" transform="translate(-788.34 153.923)" fill="#fff" fill-rule="evenodd"/>
          <path id="Path_78" data-name="Path 78" d="M970.988,137.86a1.764,1.764,0,1,1-1.686,1.857A1.782,1.782,0,0,1,970.988,137.86Z" transform="translate(-786.411 150.629)" fill="#fff" fill-rule="evenodd"/>
        </g>
        <g id="Group_46" data-name="Group 46" transform="translate(887.078 463.304)">
          <path id="Path_79" data-name="Path 79" d="M862.221,286.442l-7.963-16.511c8.213-1.138,28.228-11.8,31.4-20.024,2.362,2.967,4.871,10.5,4.871,10.5C890.749,268.23,874.638,283.949,862.221,286.442Z" transform="translate(-823.1 -155.03)" fill="#7393ca" fill-rule="evenodd"/>
          <path id="Path_80" data-name="Path 80" d="M847.429,253.807c9.049,16.381,40.66-5.683,53.308,15.582,0,0-2.61-15.526-7.216-20.272-11.37-11.715-39.229,3.213-48.049-6.961A30.56,30.56,0,0,0,847.429,253.807Z" transform="translate(-833.306 -164.016)" fill="#5478b8" fill-rule="evenodd"/>
          <path id="Path_81" data-name="Path 81" d="M891.957,238.339c-2.571,18.473-40.261,7.846-44.443,32.138,0,0-4.411-10.739-1.376-20.1,4.249-13.119,30-11.877,39.752-18.966,1.723-1.25-.872-3.059-.183-4.944A56.226,56.226,0,0,1,891.957,238.339Z" transform="translate(-833.747 -182.2)" fill="#7393ca" fill-rule="evenodd"/>
          <path id="Path_82" data-name="Path 82" d="M843.161,230.993c9.051,16.39,40.66-5.681,53.31,15.591,0,0-2.612-15.526-7.216-20.27-11.38-11.718-39.235,3.213-48.06-6.959A30.6,30.6,0,0,0,843.161,230.993Z" transform="translate(-838.262 -190.445)" fill="#5478b8" fill-rule="evenodd"/>
          <path id="Path_83" data-name="Path 83" d="M868.131,205.965l7.963,16.509c-9.651,1.345-35.591,15.826-31.367,24.04,0,0-4.681-6.678-4.9-14.509S855.723,208.454,868.131,205.965Z" transform="translate(-839.827 -205.965)" fill="#7393ca" fill-rule="evenodd"/>
        </g>
        <g id="Group_47" data-name="Group 47" transform="translate(1354.32 427.024)">
          <path id="Path_84" data-name="Path 84" d="M1056.232,250.618l4.387-17.754c7.112,4.2,29.491,8.306,37.216,3.889-.069,3.77-2.934,11.165-2.934,11.165C1090.054,254.138,1067.472,256.37,1056.232,250.618Z" transform="translate(-1056.232 -138.506)" fill="#ebb831" fill-rule="evenodd"/>
          <path id="Path_85" data-name="Path 85" d="M1059.7,224.449c-3.454,18.331,35.224,20.762,31.443,45.112,0,0,7.909-13.674,7.373-20.209-1.345-16.148-32.546-21.8-32.883-35.161A31.037,31.037,0,0,0,1059.7,224.449Z" transform="translate(-1052.47 -160.15)" fill="#da802e" fill-rule="evenodd"/>
          <path id="Path_86" data-name="Path 86" d="M1115.011,230.727c-13.829,12.758-36.307-18.834-55.113-2.548,0,0,3.452-11.07,11.8-16.468,11.7-7.559,30.916,9.349,43.033,9.882,2.135.091,1.28-2.919,3.018-3.958A55.674,55.674,0,0,1,1115.011,230.727Z" transform="translate(-1051.983 -165.275)" fill="#ebb831" fill-rule="evenodd"/>
          <path id="Path_87" data-name="Path 87" d="M1070.977,204.087c-3.45,18.335,35.226,20.76,31.445,45.117,0,0,7.907-13.678,7.371-20.214-1.343-16.146-32.544-21.8-32.881-35.161A31.052,31.052,0,0,0,1070.977,204.087Z" transform="translate(-1039.394 -183.752)" fill="#da802e" fill-rule="evenodd"/>
          <path id="Path_88" data-name="Path 88" d="M1115.014,192.487l-4.385,17.754c-8.358-4.929-37.778-9.744-39.769-.745,0,0,.648-8.088,5.484-14.308S1103.774,186.735,1115.014,192.487Z" transform="translate(-1039.277 -189.162)" fill="#ebb831" fill-rule="evenodd"/>
        </g>
        <path id="Path_89" data-name="Path 89" d="M856.744,177.9l5.8-6.626a.957.957,0,0,1,1.185-.212c4.648,2.485,6.231,7.207,6.24,12.134a27.944,27.944,0,0,1-1.2,8,.876.876,0,0,1-.145.283l-3.506,4.571a.963.963,0,0,1-1.129.3.932.932,0,0,1-.583-1c.572-4.042,1.118-11.225-2.17-14.451a5.014,5.014,0,0,0-3.651-1.451.947.947,0,0,1-.954-.492A.925.925,0,0,1,856.744,177.9Z" transform="translate(66.589 216.745)" fill="#cb2a29" fill-rule="evenodd"/>
        <path id="Path_90" data-name="Path 90" d="M896.159,167.615l-8.634-2.075a.945.945,0,0,1-.736-.937c.147-5.206,3.714-8.734,8.17-10.975a29.209,29.209,0,0,1,7.794-2.576.881.881,0,0,1,.319,0l5.737,1a.936.936,0,0,1,.786.853.926.926,0,0,1-.637.963c-3.93,1.33-10.679,4.117-12.115,8.459a4.811,4.811,0,0,0,.335,3.854.9.9,0,0,1-.013,1.06A.944.944,0,0,1,896.159,167.615Z" transform="translate(101.684 193.675)" fill="#ebb831" fill-rule="evenodd"/>
        <path id="Path_91" data-name="Path 91" d="M1081.325,281.164l8.734,1.622a.936.936,0,0,1,.78.9c.127,5.2-3.239,8.911-7.572,11.381a28.935,28.935,0,0,1-7.643,2.973.785.785,0,0,1-.317.019l-5.782-.7a.936.936,0,0,1-.242-1.8c3.843-1.533,10.446-4.666,11.636-9.079a4.751,4.751,0,0,0-.542-3.83.923.923,0,0,1-.043-1.058A.957.957,0,0,1,1081.325,281.164Z" transform="translate(312.52 344.483)" fill="#5478b8" fill-rule="evenodd"/>
        <path id="Path_92" data-name="Path 92" d="M1086.175,367.474l-1.828-5.234a.889.889,0,0,1,.151-.881.925.925,0,0,1,.829-.363l12.711.972a.938.938,0,0,1,.823.615l1.842,5a.9.9,0,0,1-.129.883.932.932,0,0,1-.82.374l-12.73-.732A.935.935,0,0,1,1086.175,367.474Z" transform="translate(330.611 437.035)" fill="#67adb6" fill-rule="evenodd"/>
        <path id="Path_93" data-name="Path 93" d="M1076.569,28.025l-3.7,4.176a.929.929,0,0,1-.846.315.939.939,0,0,1-.736-.527l-5.493-11.312a.888.888,0,0,1,.127-1.008l3.479-4.074a.944.944,0,0,1,.842-.33.935.935,0,0,1,.74.516l5.722,11.206A.9.9,0,0,1,1076.569,28.025Z" transform="translate(309.048 36.289)" fill="#5478b8" fill-rule="evenodd"/>
        <path id="Path_94" data-name="Path 94" d="M922.365,10.256l1.833,5.238a.909.909,0,0,1-.149.879.923.923,0,0,1-.827.363l-12.713-.969a.94.94,0,0,1-.829-.618l-1.844-5a.9.9,0,0,1,.13-.881.949.949,0,0,1,.823-.378l12.728.736A.931.931,0,0,1,922.365,10.256Z" transform="translate(126.011 28.904)" fill="#ebb831" fill-rule="evenodd"/>
        <path id="Path_95" data-name="Path 95" d="M977.023-15.872l9.882,7a.906.906,0,0,1,.389.684.92.92,0,0,1-.268.741l-9.589,9.565a.961.961,0,0,1-1.272.078l-6.393-5a.912.912,0,0,1-.25-1.168l6.1-11.566a.908.908,0,0,1,.622-.481A.931.931,0,0,1,977.023-15.872Z" transform="translate(197.45 0)" fill="#cb2a29" fill-rule="evenodd"/>
        <path id="Path_96" data-name="Path 96" d="M1062.672,171.815l1.22-11.91a.943.943,0,0,1,.408-.678.961.961,0,0,1,.786-.138l13.222,3.379a.931.931,0,0,1,.7,1.049l-1.2,7.941a.949.949,0,0,1-.909.8l-13.231.589a.94.94,0,0,1-.745-.3A.9.9,0,0,1,1062.672,171.815Z" transform="translate(305.544 202.97)" fill="#67adb6" fill-rule="evenodd"/>
        <path id="Path_97" data-name="Path 97" d="M1094.49,59.284l-9.874-7a.924.924,0,0,1-.4-.684.907.907,0,0,1,.267-.738l9.587-9.567a.972.972,0,0,1,1.282-.076l6.387,5a.918.918,0,0,1,.25,1.17L1095.9,58.953a.967.967,0,0,1-.633.484A.939.939,0,0,1,1094.49,59.284Z" transform="translate(330.523 66.143)" fill="#cf4c2a" fill-rule="evenodd"/>
        <path id="Path_98" data-name="Path 98" d="M832.18,128.287l-1.22,11.907a.9.9,0,0,1-.406.68.96.96,0,0,1-.788.138l-13.214-3.379a.947.947,0,0,1-.708-1.051l1.2-7.939a.961.961,0,0,1,.909-.8l13.24-.587a.932.932,0,0,1,.736.291A.881.881,0,0,1,832.18,128.287Z" transform="translate(19.441 166.104)" fill="#ebb831" fill-rule="evenodd"/>
        <path id="Path_99" data-name="Path 99" d="M805.82,376.58l-6.471-6.229a.916.916,0,0,1-.276-.807.942.942,0,0,1,.5-.7,16.458,16.458,0,0,0,7.231-6.721,10.007,10.007,0,0,0,1.151-3.506.963.963,0,0,1,1.481-.73l9.708,6.231a.934.934,0,0,1,.408,1.015,18.47,18.47,0,0,1-2.632,5.484,13.974,13.974,0,0,1-10.34,6.225A.93.93,0,0,1,805.82,376.58Z" transform="translate(0 433.253)" fill="#cb2a29" fill-rule="evenodd"/>
        <path id="Path_100" data-name="Path 100" d="M1048.9-.728l-2.25,8.623a.973.973,0,0,1-1.447.564,16.784,16.784,0,0,0-9.524-2.8,10.682,10.682,0,0,0-3.671.764.942.942,0,0,1-.952-.054.925.925,0,0,1-.434-.838l.633-11.381a.937.937,0,0,1,.7-.853,19.2,19.2,0,0,1,6.134-.507,14,14,0,0,1,10.653,5.694A.912.912,0,0,1,1048.9-.728Z" transform="translate(268.404 10.189)" fill="#67adb6" fill-rule="evenodd"/>
        <path id="Path_101" data-name="Path 101" d="M1041.368,240.559l6.471,6.229a.9.9,0,0,1,.276.81.917.917,0,0,1-.5.7,16.475,16.475,0,0,0-7.226,6.719,10.2,10.2,0,0,0-1.16,3.5.927.927,0,0,1-.526.784.947.947,0,0,1-.95-.052l-9.709-6.233a.917.917,0,0,1-.4-1.013,18.58,18.58,0,0,1,2.621-5.488,13.985,13.985,0,0,1,10.342-6.22A.921.921,0,0,1,1041.368,240.559Z" transform="translate(264.914 297.126)" fill="#cf4c2a" fill-rule="evenodd"/>
        <path id="Path_102" data-name="Path 102" d="M1096.122,134.84l8.723-2.394a.951.951,0,0,1,.855.168.927.927,0,0,1,.365.777,16.1,16.1,0,0,0,2.3,9.513,10.161,10.161,0,0,0,2.509,2.74.9.9,0,0,1,.423.838.921.921,0,0,1-.518.786l-10.342,5.149a.952.952,0,0,1-1.1-.162,18.6,18.6,0,0,1-3.523-4.977,13.537,13.537,0,0,1-.311-11.918A.936.936,0,0,1,1096.122,134.84Z" transform="translate(342.181 172.079)" fill="#5478b8" fill-rule="evenodd"/>
        <path id="Path_103" data-name="Path 103" d="M822.114,259.628,824.366,251a.933.933,0,0,1,.579-.643.95.95,0,0,1,.864.086,16.815,16.815,0,0,0,9.528,2.79,10.415,10.415,0,0,0,3.668-.764.932.932,0,0,1,.952.06.91.91,0,0,1,.432.833l-.639,11.381a.926.926,0,0,1-.693.853,19.254,19.254,0,0,1-6.134.507,14.017,14.017,0,0,1-10.66-5.7A.927.927,0,0,1,822.114,259.628Z" transform="translate(26.685 308.723)" fill="#ebb831" fill-rule="evenodd"/>
        <g id="Group_48" data-name="Group 48" transform="translate(906.423 181.702)">
          <path id="Path_104" data-name="Path 104" d="M862.064,149.823l-4.96-15.936c6.231-.462,21.908-8.906,24.791-16.314,1.594,2.932,3.01,10.115,3.01,10.115C884.594,134.985,871.54,148.417,862.064,149.823Z" transform="translate(-839.146 -26.82)" fill="#cf4c2a" fill-rule="evenodd"/>
          <path id="Path_105" data-name="Path 105" d="M852.371,119.621c5.791,15.9,30.865-2.3,39.05,18.411,0,0-1-14.628-4.169-19.378-7.812-11.735-29.647.1-35.632-10.005A35.225,35.225,0,0,0,852.371,119.621Z" transform="translate(-845.663 -37.164)" fill="#cb2a29" fill-rule="evenodd"/>
          <path id="Path_106" data-name="Path 106" d="M887.736,106.909c-3.061,16.99-30.691,4.338-35.321,26.62,0,0-2.647-10.305.2-18.789,4-11.886,23.243-8.844,31-14.717,1.356-1.036-.475-2.908.162-4.612A59.294,59.294,0,0,1,887.736,106.909Z" transform="translate(-845.879 -52.506)" fill="#cf4c2a" fill-rule="evenodd"/>
          <path id="Path_107" data-name="Path 107" d="M850.567,98.1c5.787,15.9,30.865-2.3,39.05,18.411,0,0-1-14.628-4.171-19.378-7.812-11.735-29.64.1-35.632-10.007A34.975,34.975,0,0,0,850.567,98.1Z" transform="translate(-847.76 -62.109)" fill="#cb2a29" fill-rule="evenodd"/>
          <path id="Path_108" data-name="Path 108" d="M871.65,75.54l4.962,15.936c-7.324.542-27.684,12.1-25.018,20.056a33.245,33.245,0,0,1-2.785-13.859C849.12,90.377,862.185,76.943,871.65,75.54Z" transform="translate(-848.787 -75.54)" fill="#cf4c2a" fill-rule="evenodd"/>
        </g>
      </g>
    </g>
  </g>
</svg>
