<svg xmlns="http://www.w3.org/2000/svg" viewBox="0 0 444.4 191.24"><defs><style>.cls-1{fill:#e6243e;}.cls-2{fill:#0092cc;}.cls-3{fill:#823288;opacity:0.9;}.cls-4{fill:#fff;}.cls-5{fill:#fbbb0d;}.cls-6{fill:#72b62b;}.cls-7{fill:#ea547a;}</style></defs><g id="Layer_2" data-name="Layer 2"><g id="Capa_2" data-name="Capa 2"><g id="base_color"><path class="cls-1" d="M320.32,89.05c.32-10.92,2.37-19.39,5.82-26-.2-.19-.4-.38-.6-.55s-.6-.48-.9-.72l0,0h0c-9.1-7.28-25.39-12.11-34.56-13.72-16-2.81-62.15-4.66-84.53-5.1S106.8,39.48,93.43,39.22c-8.73-.17-25-.49-39.72-.08q-2.19-.06-4.44-.06c-9.44,0-18.24.8-25.71,4.11A30.5,30.5,0,0,0,6.37,61C2.31,69.78,0,82.06,0,99.18c0,21.44,3.62,35.31,9.77,44.27l0,0c.33-.53.65-1.08,1-1.65q-.47.87-1,1.68c8.88,13.52,23.25,15.81,39.47,15.81,2.73,0,5.41,0,8-.15,29.8,1,124.56-3.29,138.5-4.73,15.31-1.58,77.07-5.7,91.31-8.56,12-2.42,25.93-7.1,35.4-12.88l1.14-.71s0,0,0,0a43.32,43.32,0,0,0,3.55-2.54,16.86,16.86,0,0,0,4-4.93C323.91,117.33,319.82,106.11,320.32,89.05Z"/><path class="cls-2" d="M384,41.15c-20.51-.29-38.73,1.3-50.28,12.13q.6.66,1.17,1.38c-.39-.47-.79-.92-1.19-1.36l0,0a34.71,34.71,0,0,0-7.57,9.82C333.21,70,336.34,86,336.34,86s2.25,25.65-5.17,38.77l.12.13s0,0,0,0c.56-.53,1.1-1.1,1.62-1.68-.52.59-1,1.17-1.59,1.72h0c10.86,11.42,29.12,13.58,49.83,13.88,34.1.49,61.86-3.12,63.16-47.92C445.7,44.58,418.13,41.64,384,41.15Z"/><path class="cls-3" d="M336.34,86s-3.13-16-10.2-22.86c-3.45,6.57-5.5,15-5.82,26-.5,17.06,3.59,28.28,10.85,35.67C338.59,111.6,336.34,86,336.34,86Z"/></g><g id="nombre_principal"><path class="cls-4" d="M72.07,86.66c-.92.88-2.69,1.39-5.3,1.51h-.93a16.65,16.65,0,0,1-6.33-1.24A11.76,11.76,0,0,0,62,83.62a32.46,32.46,0,0,0,2.21-5.1,31.34,31.34,0,0,0,1.37-5.41A17.32,17.32,0,0,0,65.73,71a9.29,9.29,0,0,0-.24-2.21A2.12,2.12,0,0,0,63.29,67c-2.46,0-4.78,1.28-7,3.86A36.41,36.41,0,0,0,50.49,81a77.67,77.67,0,0,0-4,13.83A79,79,0,0,0,45,109.66a29.43,29.43,0,0,0,.86,7.39,12.75,12.75,0,0,0,2.81,5.53,6.65,6.65,0,0,0,5.12,2.12,14.32,14.32,0,0,0,7-1.78A24.7,24.7,0,0,0,67,118.16a51.73,51.73,0,0,0,5.29-6.67q2.46-3.67,4.53-7.54a31.77,31.77,0,0,1-2,6.72,44.31,44.31,0,0,1-4,7.52,40.14,40.14,0,0,1-5.93,7,28.29,28.29,0,0,1-7.69,5.21,21.9,21.9,0,0,1-9.38,2,13.12,13.12,0,0,1-8.9-3,17.19,17.19,0,0,1-5-8,36.4,36.4,0,0,1-1.57-11.14,74.63,74.63,0,0,1,1.23-13A72.79,72.79,0,0,1,37.12,84.2a52.4,52.4,0,0,1,5.93-11.39,29.53,29.53,0,0,1,8.22-8.1,18.77,18.77,0,0,1,10.46-3,15.5,15.5,0,0,1,7.8,1.71,10.07,10.07,0,0,1,4.16,4.46,14.78,14.78,0,0,1,1.31,6v.39a25.92,25.92,0,0,1-.8,6.24A34.9,34.9,0,0,1,72.07,86.66Z"/><path class="cls-4" d="M81.63,132.47a10.62,10.62,0,0,1-6.72-2.05,12,12,0,0,1-3.81-5.19,17.33,17.33,0,0,1-1.22-6.38,35.78,35.78,0,0,1,1.28-9.2,70.58,70.58,0,0,1,3-8.94,6.54,6.54,0,0,1,4.27-2.55,11.32,11.32,0,0,1,4-6.81,11.65,11.65,0,0,1,7.29-2.24,8.55,8.55,0,0,1,7.55,4q2.64,4,2.62,11.46a41.64,41.64,0,0,1-.46,6,11.28,11.28,0,0,0,5-2.1A10.12,10.12,0,0,0,107.8,104a6.52,6.52,0,0,1-2.37,5.3A13.39,13.39,0,0,1,99.29,112,35,35,0,0,1,96,121.81a23.36,23.36,0,0,1-6,7.69A12.73,12.73,0,0,1,81.63,132.47Zm1.38-24a34.39,34.39,0,0,0-1.1,8.34,30.29,30.29,0,0,0,.21,3.11,10.08,10.08,0,0,0,1,3.49,2.7,2.7,0,0,0,2.53,1.55A4.31,4.31,0,0,0,89,123.07a17.36,17.36,0,0,0,2.66-4.81,35.31,35.31,0,0,0,1.69-6.17A23.21,23.21,0,0,1,83,108.43Zm.61-10.55a7,7,0,0,1,3.29,1.28A30,30,0,0,0,84.05,105q3,4.56,9.5,5.57a46.7,46.7,0,0,0,.46-6.33A15.31,15.31,0,0,0,92.8,97.9a4.35,4.35,0,0,0-4.31-2.8,5.74,5.74,0,0,0-2.58.55A6.44,6.44,0,0,0,83.62,97.88Z"/><path class="cls-4" d="M130.09,99.9c-1.6,1.28-3.35,3.81-5.22,7.6-.75,1.5-1.49,3-2.22,4.6-1.05,2.46-2.07,5-3.06,7.7q-2.46,6.61-3.71,11.28a14.79,14.79,0,0,1-5.89,1.46,7.42,7.42,0,0,1-5.73-2.37,9.26,9.26,0,0,1-1.9-6.29,73.9,73.9,0,0,1,1.85-13.76A99.64,99.64,0,0,1,109.3,93c1.12-1.93,3.65-2.92,7.62-3a8.86,8.86,0,0,1,5.1,1.43q-2.91,4.91-5.73,14.47t-3,15.05c.06,2.06.4,3.1,1,3.1q.8-2.7,2.23-6.92t3.8-9.6a66.82,66.82,0,0,1,4.43-8.19,29.89,29.89,0,0,1,5.71-6.83A9.89,9.89,0,0,1,137,89.91a6.55,6.55,0,0,1,3.78,1.16,4.36,4.36,0,0,1,1.66,3.86q0,1.92-2,8.19-3.85,12.75-3.87,18.78c.06,1.51.47,2.26,1.22,2.26s1.85-.81,3.08-2.44a54,54,0,0,0,3.77-5.88q1.92-3.44,3.47-6.67c1-2.15,1.78-3.84,2.24-5a17.68,17.68,0,0,1-1,4.12q-1,3.2-2.81,7.28a68.88,68.88,0,0,1-4.09,8,32.84,32.84,0,0,1-5,6.49,7.78,7.78,0,0,1-5.41,2.61,6.69,6.69,0,0,1-5.53-2.47,9.41,9.41,0,0,1-1.9-6.18Q124.66,115.65,130.09,99.9Z"/><path class="cls-4" d="M173.71,99.67a13.17,13.17,0,0,1-1.68,6.27,14.44,14.44,0,0,1-3.74,4.56,9.81,9.81,0,0,1-6.39,2.34,5.21,5.21,0,0,1-3.87-1.78,43.6,43.6,0,0,0-1,7.11,12.47,12.47,0,0,0,.67,4.62c.78,1.67,1.88,2.51,3.28,2.51a10,10,0,0,0,5.9-2,21.9,21.9,0,0,0,4.91-4.7,42.26,42.26,0,0,0,3.6-5.49,56.32,56.32,0,0,0,4-9q0,2.9-2.87,9.86a52.79,52.79,0,0,1-3.6,6.76,33.29,33.29,0,0,1-6.84,8,14.85,14.85,0,0,1-9.33,3.81h-.25a11.38,11.38,0,0,1-8.34-3.6,11.73,11.73,0,0,1-2.31-4.11A18.17,18.17,0,0,1,145,119a51.47,51.47,0,0,1,1.75-11.09,48.19,48.19,0,0,1,3.95-10.24,16,16,0,0,1,3.54-4.51,11.62,11.62,0,0,1,8.3-3A13.79,13.79,0,0,1,169.41,92a9.5,9.5,0,0,1,3.11,3.1A8.35,8.35,0,0,1,173.71,99.67Zm-6.86-3v-.2c0-1.34-.29-2-.88-2a2.72,2.72,0,0,0-1.89.91,10.34,10.34,0,0,0-1.75,2.47,37,37,0,0,0-2.42,5.93c-.55,1.8-1,3.6-1.48,5.4a3.05,3.05,0,0,0,1.86.79c1.15,0,2.21-.72,3.2-2.16a15.72,15.72,0,0,0,2.27-4.75A27.24,27.24,0,0,0,166.85,96.71Z"/><path class="cls-4" d="M191.36,107.36q6.64-8.22,7.89-16.62a4.32,4.32,0,0,1,1.82-.14,4.84,4.84,0,0,1,1.84.45,1.17,1.17,0,0,1,.8,1.08q-.15,4.17-3.5,9.49a65.33,65.33,0,0,1-8.32,10.45,57.42,57.42,0,0,0,1.33,6.19,16.52,16.52,0,0,0,2,4.72,3.45,3.45,0,0,0,2.84,1.82c.95,0,2-.82,3.12-2.45a41.22,41.22,0,0,0,3.35-5.93c1.11-2.32,2.09-4.56,3-6.74s1.53-3.88,2-5.12l.09-.3a26.34,26.34,0,0,1-1.46,6.7,68.09,68.09,0,0,1-3.95,9.75,38.6,38.6,0,0,1-5.59,8.6q-3,3.48-6.39,3.47h-.09a9.68,9.68,0,0,1-6.47-3.23,22,22,0,0,1-4.3-7.29,76.69,76.69,0,0,0-3.9,6.69,28.17,28.17,0,0,0-2.22,5.36,3.84,3.84,0,0,1-3-2,6.11,6.11,0,0,1-.82-3.34,12,12,0,0,1,.15-1.81,12.79,12.79,0,0,1,1.38-1.69q1.28-1.44,3.2-3.5l3.83-4.11a72.08,72.08,0,0,1-1.92-16q.06-6.09,1.29-8.78,1.68-2.16,5.65-2.4c.4,0,.79,0,1.18,0A10.38,10.38,0,0,1,191.59,92a23.17,23.17,0,0,0-.6,5.29v1.57C191,101.47,191.11,104.32,191.36,107.36Z"/><path class="cls-4" d="M214.73,122.09a5.92,5.92,0,0,0,.19,1.52.92.92,0,0,0,1,.74q1.68,0,4.26-3.67a64.62,64.62,0,0,0,4.9-8.31,57.88,57.88,0,0,0,3.41-8.06,20,20,0,0,1-.92,4.22,76.27,76.27,0,0,1-2.55,7.25,56.88,56.88,0,0,1-3.92,8,29.79,29.79,0,0,1-5,6.46,8.45,8.45,0,0,1-5.85,2.59,6.88,6.88,0,0,1-4.71-1.46,7.28,7.28,0,0,1-2.19-3.47,12.67,12.67,0,0,1-.58-3.73A52,52,0,0,1,204,113.77q1.31-6.08,3-12c1.12-3.93,2.14-7.24,3.06-10a19.28,19.28,0,0,1,7.37-1.55,10.15,10.15,0,0,1,2.92.4,3.84,3.84,0,0,1,1.93,1.18q-1.33,3.68-3.06,9.27t-3.09,11.35A43.26,43.26,0,0,0,214.73,122.09Z"/><path class="cls-4" d="M234.78,132.83a10.56,10.56,0,0,1-6.72-2.05,12.06,12.06,0,0,1-3.82-5.18,17.58,17.58,0,0,1-1.21-6.39A35.74,35.74,0,0,1,224.3,110a71.81,71.81,0,0,1,3-9,6.51,6.51,0,0,1,4.27-2.54,11.27,11.27,0,0,1,4-6.81,11.65,11.65,0,0,1,7.29-2.24,8.54,8.54,0,0,1,7.55,4q2.63,4,2.62,11.47a43,43,0,0,1-.46,6,11.38,11.38,0,0,0,5-2.09,10.2,10.2,0,0,0,3.27-4.46,6.53,6.53,0,0,1-2.37,5.29,13.39,13.39,0,0,1-6.14,2.69,35,35,0,0,1-3.31,9.8,23.39,23.39,0,0,1-6,7.69A12.73,12.73,0,0,1,234.78,132.83Zm1.38-24a33.42,33.42,0,0,0-1.1,8.33,30.28,30.28,0,0,0,.21,3.12,9.73,9.73,0,0,0,1,3.49,2.65,2.65,0,0,0,2.52,1.55,4.34,4.34,0,0,0,3.34-1.86,17.44,17.44,0,0,0,2.66-4.8,34.56,34.56,0,0,0,1.68-6.18A23.32,23.32,0,0,1,236.16,108.8Zm.61-10.55a6.94,6.94,0,0,1,3.29,1.28,29.34,29.34,0,0,0-2.86,5.78q3,4.57,9.5,5.57a48.25,48.25,0,0,0,.46-6.33A15.43,15.43,0,0,0,246,98.27a4.37,4.37,0,0,0-4.31-2.81,5.88,5.88,0,0,0-2.58.56A6.35,6.35,0,0,0,236.77,98.25Z"/><path class="cls-4" d="M283.24,100.27q-2.42,1.91-5.22,7.59c-.76,1.51-1.5,3-2.22,4.61q-1.57,3.68-3.06,7.7-2.48,6.61-3.71,11.28a14.63,14.63,0,0,1-5.89,1.45,7.39,7.39,0,0,1-5.74-2.37,9.33,9.33,0,0,1-1.9-6.28,74.86,74.86,0,0,1,1.86-13.76,99.48,99.48,0,0,1,5.09-17.09q1.67-2.9,7.61-3a8.74,8.74,0,0,1,5.1,1.43q-2.91,4.9-5.72,14.46t-3,15.06q.09,3.09,1,3.09c.53-1.79,1.27-4.1,2.22-6.91s2.23-6,3.8-9.61a68.89,68.89,0,0,1,4.44-8.18,29.42,29.42,0,0,1,5.71-6.83,9.87,9.87,0,0,1,6.58-2.66A6.48,6.48,0,0,1,294,91.44a4.39,4.39,0,0,1,1.66,3.86q0,1.9-2,8.18-3.86,12.76-3.87,18.79c.06,1.51.47,2.26,1.22,2.26s1.84-.82,3.08-2.45a51.66,51.66,0,0,0,3.76-5.88q1.92-3.42,3.48-6.66t2.24-5.05a18.5,18.5,0,0,1-1,4.12q-1,3.18-2.81,7.28a68.82,68.82,0,0,1-4.1,8,32.24,32.24,0,0,1-5,6.49,7.79,7.79,0,0,1-5.41,2.62,6.71,6.71,0,0,1-5.54-2.47,9.55,9.55,0,0,1-1.9-6.19Q277.81,116,283.24,100.27Z"/><path class="cls-4" d="M220.07,73.14c-2.12-.15-4-.08-5.26,1.07l.11.16-.12-.16h0a4,4,0,0,0-.84,1,7,7,0,0,0-.76,2.87,5.39,5.39,0,0,0,.9,4v0h0l.18-.17-.17.18h0c1,1.34,2.92,1.68,5,1.83,3.51.25,6.39,0,6.81-5S223.58,73.39,220.07,73.14Z"/><path class="cls-4" d="M361.93,85c.88-.44,1.88-1,3-1.58,1.36-.71,2.62-1.37,3.8-2-1.08.77-2.27,1.57-3.56,2.4s-2.44,1.55-3.44,2.15c-.35,2.11-.77,4.15-1.26,6.14-.32,1.29-.7,2.59-1.16,3.89a18.38,18.38,0,0,1-1.73,3.63,10.13,10.13,0,0,1-2.86,3.1A8,8,0,0,1,350.5,104a3.94,3.94,0,0,1-3.06-1.1,4.64,4.64,0,0,1-1.34-3.29,8.64,8.64,0,0,1,2.41-6,28.26,28.26,0,0,1,7.87-6q.74-4.45,1.28-8.87c.35-2.72.75-5.42,1.18-8.12s.84-4.82,1.23-6.39a22.34,22.34,0,0,0,.58-2.57.58.58,0,0,0-.14-.37.53.53,0,0,0-.43-.14,4.43,4.43,0,0,0-2.7,1.19,11.2,11.2,0,0,0-2.28,2.76,15.62,15.62,0,0,0-1.55,3.45,9.2,9.2,0,0,0-.48,3.19,6.88,6.88,0,0,0,.67,2.69,4.76,4.76,0,0,0,1.9,2l-.14,0a5.75,5.75,0,0,1-.9.44,3.7,3.7,0,0,1-1.2.21,3.18,3.18,0,0,1-2-.51,3.77,3.77,0,0,1-1.22-1.47,4.87,4.87,0,0,1-.45-1.75,11.19,11.19,0,0,1,1.11-5.35,18.07,18.07,0,0,1,3.31-4.88,18.85,18.85,0,0,1,4.62-3.6,11.59,11.59,0,0,1,5-1.51,2.6,2.6,0,0,1,1.71.38,2,2,0,0,1,.77,1.13,4.31,4.31,0,0,1,.13.8,4.51,4.51,0,0,1,0,.73,9.86,9.86,0,0,1-.3,1.6c-.78,2.91-1.42,5.74-1.91,8.51s-1,5.59-1.37,8.46C362.48,81.45,362.21,83.18,361.93,85Zm-6.19,6.25c.13-.66.26-1.34.39-2a26.73,26.73,0,0,0-2.79,1.92,19,19,0,0,0-2.52,2.38,11.27,11.27,0,0,0-1.8,2.81,7.06,7.06,0,0,0-.58,3.18,2.7,2.7,0,0,0,.45,1.48,1.34,1.34,0,0,0,1.21.51,3,3,0,0,0,2.19-1.25,11.67,11.67,0,0,0,1.64-2.88,31.33,31.33,0,0,0,1.17-3.41C355.4,92.81,355.61,91.9,355.74,91.2Z"/><path class="cls-4" d="M378.67,84.37a3.61,3.61,0,0,0,.12.67.41.41,0,0,0,.46.31c.26,0,.57-.23.92-.66a12.74,12.74,0,0,0,1.13-1.64,39.29,39.29,0,0,0,1.87-3.85c.58-1.36,1-2.39,1.24-3.11a12.84,12.84,0,0,1-.63,2.79,37.21,37.21,0,0,1-1.84,4.8,20.94,20.94,0,0,1-1.48,2.7,9.94,9.94,0,0,1-1.72,2,3.12,3.12,0,0,1-1.87.84,3,3,0,0,1-2.12-.55,3.26,3.26,0,0,1-1.07-1.5,6.35,6.35,0,0,1-.35-1.65,21.23,21.23,0,0,1,.15-3.25,22.89,22.89,0,0,1-1.21,3.06,12,12,0,0,1-2.09,3.16A3.24,3.24,0,0,1,368,89.7a3.33,3.33,0,0,1-1.47-.22,3,3,0,0,1-1-.67,3.83,3.83,0,0,1-.82-1.45,5.81,5.81,0,0,1-.26-1.36,18.41,18.41,0,0,1,.07-2.32c.07-1,.21-2.15.41-3.39A31.23,31.23,0,0,1,366,75.57a12.16,12.16,0,0,1,1.64-3.37,4.82,4.82,0,0,1,1.18-1.2,2.73,2.73,0,0,1,1.42-.49,5.68,5.68,0,0,1,2.76.56,8,8,0,0,1,2.35,1.68,2.75,2.75,0,0,1,.07-.3c0-.15.08-.3.13-.46a2.2,2.2,0,0,1,1.3-1.43,6.52,6.52,0,0,1,2.25-.49,4.46,4.46,0,0,1,1.3.12,1.77,1.77,0,0,1,.9.48c-.21.7-.45,1.54-.71,2.52-.33,1.24-.66,2.56-1,4s-.6,2.88-.78,4.23A15.73,15.73,0,0,0,378.67,84.37ZM375.06,74c-.74-1-1.41-1.43-2-1.4s-.94.48-1.32,1.37A17.31,17.31,0,0,0,370.58,78c-.22,1.09-.4,2.13-.52,3.16a31.78,31.78,0,0,0-.29,3.58,3.09,3.09,0,0,0,.12.75.41.41,0,0,0,.44.34c.28,0,.59-.32.95-.91a16.2,16.2,0,0,0,1.07-2.29c.52-1.35,1-2.75,1.47-4.21C374.43,76.33,374.85,74.89,375.06,74Z"/><path class="cls-4" d="M384,79.44c0-.36.08-.73.14-1.11.42-3.06,1-6.23,1.67-9.51.44-2.09.88-4,1.34-5.88.4-1.61.77-3,1.11-4.24a8.76,8.76,0,0,1,3.26-.87,4.53,4.53,0,0,1,1.31.12,1.64,1.64,0,0,1,.9.5c-.54,1.81-1.06,3.61-1.54,5.43q-.86,3.2-1.58,6.4-.54,2.43-1,4.89c-.2,1.07-.36,2.08-.51,3a3.67,3.67,0,0,1-1.18,2.44,3.59,3.59,0,0,1-1.93.6,2.19,2.19,0,0,1-1.67-.49A1.25,1.25,0,0,1,384,80,3.54,3.54,0,0,1,384,79.44Zm1.89,4A3.78,3.78,0,0,0,383,84l.06.08L383,84h0a2,2,0,0,0-.46.57,3.69,3.69,0,0,0-.41,1.56,2.94,2.94,0,0,0,.48,2.19h0a.94.94,0,0,0,.1-.1l-.09.1h0a3.66,3.66,0,0,0,2.74,1c1.91.14,3.48,0,3.71-2.71S387.77,83.56,385.86,83.42Z"/><path class="cls-4" d="M401.7,110.51c.87-.44,1.88-1,3-1.58,1.36-.71,2.62-1.37,3.8-2-1.08.77-2.27,1.57-3.56,2.4s-2.44,1.54-3.44,2.15c-.36,2.1-.77,4.15-1.26,6.14-.32,1.29-.71,2.59-1.17,3.89a18.35,18.35,0,0,1-1.72,3.63,10,10,0,0,1-2.87,3.09,7.9,7.9,0,0,1-4.24,1.34,4,4,0,0,1-3.07-1.11,4.7,4.7,0,0,1-1.34-3.28,8.68,8.68,0,0,1,2.42-6,27.92,27.92,0,0,1,7.87-6c.49-3,.91-5.93,1.28-8.87q.52-4.08,1.17-8.12t1.24-6.39a25.24,25.24,0,0,0,.58-2.57.58.58,0,0,0-.14-.37.5.5,0,0,0-.43-.13,4.37,4.37,0,0,0-2.7,1.17,11.52,11.52,0,0,0-2.29,2.77,15.37,15.37,0,0,0-1.54,3.45,9.2,9.2,0,0,0-.48,3.19,6.76,6.76,0,0,0,.67,2.69,4.79,4.79,0,0,0,1.89,2l-.13,0a7.45,7.45,0,0,1-.9.44,3.75,3.75,0,0,1-1.2.21,3.18,3.18,0,0,1-2-.51,3.69,3.69,0,0,1-1.22-1.47,4.87,4.87,0,0,1-.45-1.75,11.29,11.29,0,0,1,1.1-5.35,18,18,0,0,1,3.32-4.88,18.66,18.66,0,0,1,4.62-3.6,11.55,11.55,0,0,1,5-1.51,2.6,2.6,0,0,1,1.71.38,2,2,0,0,1,.77,1.13,3.6,3.6,0,0,1,.12.8,3,3,0,0,1,0,.73,11.34,11.34,0,0,1-.29,1.6q-1.17,4.35-1.91,8.51c-.5,2.77-.95,5.59-1.37,8.46C402.24,107,402,108.73,401.7,110.51Zm-6.19,6.25c.13-.66.26-1.34.38-2a25.61,25.61,0,0,0-2.78,1.92,19,19,0,0,0-2.52,2.38,11,11,0,0,0-1.8,2.81,6.93,6.93,0,0,0-.58,3.18,2.73,2.73,0,0,0,.45,1.48,1.31,1.31,0,0,0,1.21.51,3,3,0,0,0,2.19-1.25,11.88,11.88,0,0,0,1.64-2.89,28.47,28.47,0,0,0,1.16-3.4C395.17,118.37,395.38,117.46,395.51,116.76Z"/><path class="cls-4" d="M418.44,109.93a2.48,2.48,0,0,0,.12.67.41.41,0,0,0,.46.31c.26,0,.57-.23.92-.66a13.53,13.53,0,0,0,1.12-1.64,41.73,41.73,0,0,0,1.88-3.85c.58-1.36,1-2.4,1.23-3.11a12.48,12.48,0,0,1-.63,2.8,36.08,36.08,0,0,1-1.83,4.79,21,21,0,0,1-1.49,2.7,9.58,9.58,0,0,1-1.71,2,3.14,3.14,0,0,1-1.88.85,3.06,3.06,0,0,1-2.12-.55,3.29,3.29,0,0,1-1.06-1.5,6,6,0,0,1-.35-1.65,21.23,21.23,0,0,1,.15-3.25,24.18,24.18,0,0,1-1.21,3,11.87,11.87,0,0,1-2.09,3.17,3.24,3.24,0,0,1-2.22,1.17,3.43,3.43,0,0,1-1.46-.22,3,3,0,0,1-1-.67,3.83,3.83,0,0,1-.82-1.45,5.87,5.87,0,0,1-.27-1.37,20.93,20.93,0,0,1,.08-2.31c.07-1,.21-2.15.41-3.39a32.9,32.9,0,0,1,1.13-4.73,12.52,12.52,0,0,1,1.64-3.36,5,5,0,0,1,1.19-1.2,2.7,2.7,0,0,1,1.42-.49,5.68,5.68,0,0,1,2.76.56,8.12,8.12,0,0,1,2.34,1.67s0-.16.08-.29.08-.3.13-.46a2.15,2.15,0,0,1,1.3-1.43,6.46,6.46,0,0,1,2.24-.49,4.82,4.82,0,0,1,1.3.11,1.85,1.85,0,0,1,.91.49c-.22.7-.45,1.54-.71,2.52-.34,1.24-.67,2.56-1,4a42.54,42.54,0,0,0-.79,4.23A16.49,16.49,0,0,0,418.44,109.93ZM414.82,99.6c-.73-1-1.4-1.43-2-1.4s-.94.48-1.32,1.37a17.31,17.31,0,0,0-1.15,4c-.23,1.08-.4,2.13-.53,3.15a31,31,0,0,0-.28,3.59,3.09,3.09,0,0,0,.12.75.41.41,0,0,0,.44.34c.28,0,.59-.32.94-.92a17.1,17.1,0,0,0,1.08-2.28c.52-1.35,1-2.76,1.46-4.22C414.2,101.89,414.62,100.45,414.82,99.6Z"/><path class="cls-4" d="M423.73,105c0-.35.09-.72.15-1.1q.63-4.59,1.66-9.51.66-3.13,1.34-5.88c.41-1.61.78-3,1.11-4.24a8.62,8.62,0,0,1,3.27-.87,4.93,4.93,0,0,1,1.31.11,1.69,1.69,0,0,1,.9.51q-.83,2.71-1.54,5.43-.85,3.19-1.58,6.4-.54,2.43-1,4.89c-.2,1.07-.37,2.08-.51,3a3.69,3.69,0,0,1-1.18,2.43,3.53,3.53,0,0,1-1.93.6,2.23,2.23,0,0,1-1.68-.49,1.24,1.24,0,0,1-.34-.75A3.68,3.68,0,0,1,423.73,105Zm2.17,3.33a3.78,3.78,0,0,0-2.86.58l.06.09-.06-.09h0a2,2,0,0,0-.46.57,3.87,3.87,0,0,0-.42,1.56,3,3,0,0,0,.49,2.2h0a.94.94,0,0,0,.1-.1.47.47,0,0,1-.1.1h0a3.64,3.64,0,0,0,2.75,1c1.91.14,3.48,0,3.7-2.7S427.81,108.46,425.9,108.32Z"/><path class="cls-4" d="M255.54,72c-2-1.7-3.64-1.53-8.37,3.61-2.62,2.85-4.53,6.77-4.51,9a2.41,2.41,0,0,0,.17,1l0,0a1,1,0,0,0,.19.29c1.06,1.15,4.61-.66,7.82-3.17.69-.54,1.36-1.1,2-1.68C257,77.15,257.73,73.8,255.54,72Z"/></g><g id="petalos_2"><path class="cls-5" d="M340.56,174.4c-.56-9.52-5-19.79-8.88-19.88s-6.33,11-6.56,20.55c-.27,11.08,3.48,16.72,9.11,16.13C339.4,190.66,341.38,188.15,340.56,174.4Z"/><path class="cls-6" d="M365.29,154.33c-5-4.41-12.24-7.26-14.18-5.41s2.31,8.55,6.9,13.36c5.34,5.6,10,6.53,12.45,3.46C372.74,162.92,372.48,160.71,365.29,154.33Z"/><path class="cls-7" d="M300,159.83c4.61-5.88,12.07-10.51,14.58-8.85s-.83,9.92-4.93,16.16c-4.77,7.27-9.7,9.23-13.07,6.34C293.49,170.83,293.34,168.33,300,159.83Z"/></g><g id="petalos_1"><path class="cls-5" d="M331.84,16c.46,9.52-2.89,20.21-6.71,20.71S317.67,26.47,316.42,17C315,6,318.09,0,323.75,0,329,0,331.19,2.28,331.84,16Z"/><path class="cls-6" d="M357.24,33.35c-4.48,4.91-11.4,8.53-13.52,6.89s1.38-8.75,5.43-14c4.71-6.14,9.21-7.56,12-4.77C363.73,24,363.71,26.24,357.24,33.35Z"/><path class="cls-7" d="M291.73,34.86c5.21,5.35,13.12,9.15,15.45,7.24s-1.89-9.78-6.63-15.55c-5.52-6.71-10.63-8.14-13.67-4.91C284.09,24.61,284.21,27.12,291.73,34.86Z"/></g></g></g></svg>